<?xml version="1.0" standalone="no"?>
<!DOCTYPE svg PUBLIC "-//W3C//DTD SVG 1.1//EN"
 "http://www.w3.org/Graphics/SVG/1.1/DTD/svg11.dtd">
<svg version="1.0" xmlns="http://www.w3.org/2000/svg"
 width="190px" height="80px" viewBox="0 0 190 80"
 preserveAspectRatio="xMidYMid meet">
<g transform="translate(0,80) scale(0.1,-0.1)"
fill="#000000" stroke="none">
<path d="M1671 733 c-1 -7 -21 -26 -46 -43 -32 -22 -45 -38 -45 -54 0 -13 -52
-142 -115 -286 -64 -145 -114 -269 -111 -275 6 -15 56 -29 67 -18 4 4 55 123
114 263 59 140 115 264 125 275 26 28 32 63 21 110 -5 22 -9 35 -10 28z m9
-68 c0 -5 -9 -25 -20 -43 -17 -28 -22 -31 -39 -20 -34 21 -32 44 7 72 35 25
51 22 52 -9z m-71 -94 c22 -14 4 -33 -20 -21 -11 6 -17 15 -14 21 8 11 16 11
34 0z m-110 -265 c-83 -200 -102 -236 -111 -220 -5 8 23 75 169 404 8 19 17
30 20 23 2 -6 -33 -100 -78 -207z"/>
<path d="M1630 655 c-16 -9 -19 -14 -9 -15 8 0 24 7 35 15 24 18 7 19 -26 0z"/>
<path d="M1264 535 c-4 -9 -2 -21 4 -27 15 -15 44 -1 40 19 -4 23 -36 29 -44
8z"/>
<path d="M750 505 c0 -32 -2 -35 -30 -35 -45 0 -80 -39 -80 -87 0 -73 46 -103
100 -66 22 16 23 16 17 0 -4 -11 -1 -17 8 -17 12 0 15 21 15 120 0 100 -2 120
-15 120 -10 0 -15 -11 -15 -35z m-2 -112 c-3 -42 -6 -49 -31 -57 -33 -12 -47
2 -47 50 0 38 16 54 53 54 27 0 28 -1 25 -47z"/>
<path d="M278 410 c-33 -100 -35 -110 -18 -110 12 0 20 8 22 23 3 19 10 22 56
25 50 3 52 2 52 -22 0 -20 5 -26 21 -26 13 0 19 5 16 13 -3 6 -20 56 -38 110
-28 81 -37 97 -54 97 -17 0 -26 -17 -57 -110z m76 36 c9 -30 16 -57 16 -60 0
-3 -16 -6 -36 -6 -29 0 -34 3 -30 18 2 9 10 36 17 60 7 23 13 42 15 42 1 0 10
-24 18 -54z"/>
<path d="M80 453 c-30 -25 -55 -49 -55 -53 0 -4 25 -28 55 -53 37 -31 58 -43
65 -36 7 7 5 14 -6 22 -8 7 -31 25 -49 41 l-34 28 26 19 c61 45 73 58 63 68
-7 7 -28 -5 -65 -36z"/>
<path d="M1665 490 c-6 -9 16 -31 74 -77 15 -12 15 -14 0 -25 -58 -47 -79 -69
-74 -78 7 -11 31 5 95 60 l35 30 -25 21 c-14 11 -40 34 -57 50 -36 32 -39 33
-48 19z"/>
<path d="M460 385 c0 -69 3 -85 15 -85 12 0 15 13 15 60 0 55 2 61 25 72 38
17 49 0 46 -72 -2 -52 0 -60 16 -60 16 0 18 8 15 72 -2 40 -8 79 -14 86 -14
17 -49 15 -76 -4 -20 -14 -22 -14 -22 0 0 9 -4 16 -10 16 -6 0 -10 -35 -10
-85z"/>
<path d="M840 385 c0 -74 2 -85 18 -85 14 0 17 8 14 56 -3 45 0 58 15 69 24
19 63 19 63 0 0 -8 9 -15 20 -15 14 0 18 5 13 18 -16 45 -50 55 -91 26 -20
-14 -22 -14 -22 0 0 9 -7 16 -15 16 -12 0 -15 -16 -15 -85z"/>
<path d="M1045 445 c-52 -51 -16 -145 54 -145 39 0 61 9 61 25 0 9 -11 12 -40
8 -38 -5 -70 8 -70 28 0 5 27 9 60 9 58 0 60 1 60 25 0 33 -42 75 -75 75 -14
0 -37 -11 -50 -25z m83 -17 c21 -21 13 -28 -33 -28 -46 0 -54 7 -33 28 15 15
51 15 66 0z"/>
<path d="M1220 455 c0 -10 10 -15 30 -15 30 0 30 -1 30 -55 0 -54 0 -55 -30
-55 -20 0 -30 -5 -30 -15 0 -12 14 -15 65 -15 51 0 65 3 65 15 0 10 -10 15
-26 15 -26 0 -26 0 -22 70 l4 70 -43 0 c-32 0 -43 -4 -43 -15z"/>
</g>
</svg>
